<svg width="1920" height="1080" viewBox="0 0 1920 1080" fill="none" xmlns="http://www.w3.org/2000/svg">
<g clip-path="url(#clip0_16_2)">
<path fill-rule="evenodd" clip-rule="evenodd" d="M1763.87 995.599C1791.55 961.653 1833.7 939.975 1880.92 939.975C1924.7 939.975 1964.13 958.617 1991.7 988.397C2011.91 943.948 2056.71 913.042 2108.72 913.042C2150.78 913.042 2188.11 933.247 2211.55 964.479C2224.87 956.747 2240.34 952.319 2256.85 952.319C2306.74 952.319 2347.19 992.764 2347.19 1042.66C2347.19 1092.55 2306.74 1132.99 2256.85 1132.99C2239.85 1132.99 2223.95 1128.3 2210.37 1120.14C2186.87 1150.49 2150.08 1170.02 2108.72 1170.02C2076.38 1170.02 2046.83 1158.08 2024.24 1138.35C2004.35 1198.47 1947.7 1241.85 1880.92 1241.85C1827.77 1241.85 1781.05 1214.38 1754.15 1172.87C1719.18 1236.71 1651.36 1280 1573.43 1280C1481.64 1280 1403.88 1219.94 1377.29 1136.97C1359.1 1154.65 1334.28 1165.54 1306.91 1165.54C1288.59 1165.54 1271.41 1160.66 1256.6 1152.13C1229.15 1190.8 1184.01 1216.03 1132.97 1216.03C1076.02 1216.03 1026.4 1184.6 1000.53 1138.14C967.977 1197.28 905.061 1237.36 832.785 1237.36C758.499 1237.36 694.101 1195.02 662.401 1133.16C647.63 1141.62 630.517 1146.46 612.274 1146.46C589.553 1146.46 568.585 1138.96 551.711 1126.29C519.74 1205.24 442.335 1260.92 351.925 1260.92C259.37 1260.92 180.446 1202.56 149.941 1120.64C122.333 1150.98 82.5267 1170.02 38.2721 1170.02C13.7623 1170.02 -9.38293 1164.18 -29.8473 1153.82C-53.6986 1205.77 -106.181 1241.85 -167.089 1241.85C-228.82 1241.85 -281.895 1204.79 -305.282 1151.7C-315.334 1155.56 -326.252 1157.68 -337.663 1157.68C-387.555 1157.68 -428 1117.24 -428 1067.34C-428 1017.45 -387.555 977.007 -337.663 977.007C-317.392 977.007 -298.68 983.685 -283.606 994.959C-255.923 961.381 -214.006 939.975 -167.089 939.975C-142.58 939.975 -119.435 945.817 -98.9703 956.185C-75.119 904.233 -22.6368 868.155 38.2721 868.155C91.6239 868.155 138.51 895.836 165.353 937.619C202.623 873.279 272.22 830 351.925 830C442.335 830 519.74 885.685 551.711 964.63C568.585 951.967 589.553 944.464 612.274 944.464C630.701 944.464 647.975 949.398 662.847 958.018C694.702 896.629 758.846 854.688 832.785 854.688C913.445 854.688 982.447 904.599 1010.59 975.222C1038.15 937.527 1082.7 913.042 1132.97 913.042C1184.01 913.042 1229.15 938.276 1256.6 976.948C1271.41 968.419 1288.59 963.541 1306.91 963.541C1336.88 963.541 1363.8 976.591 1382.29 997.319C1412.73 921.608 1486.84 868.155 1573.43 868.155C1659.37 868.155 1733.02 920.799 1763.87 995.599Z" fill="#F1EFEF" fill-opacity="0.75"/>
<path fill-rule="evenodd" clip-rule="evenodd" d="M2265.79 1003.4C2301.63 959.45 2356.2 931.383 2417.32 931.383C2474.01 931.383 2525.06 955.519 2560.75 994.074C2586.92 936.527 2644.92 896.514 2712.26 896.514C2766.71 896.514 2815.05 922.673 2845.4 963.108C2862.64 953.097 2882.67 947.365 2904.04 947.365C2968.64 947.365 3021 999.729 3021 1064.32C3021 1128.92 2968.64 1181.28 2904.04 1181.28C2882.04 1181.28 2861.45 1175.2 2843.87 1164.63C2813.44 1203.93 2765.81 1229.23 2712.26 1229.23C2670.39 1229.23 2632.13 1213.76 2602.89 1188.22C2577.14 1266.05 2503.79 1322.21 2417.32 1322.21C2348.52 1322.21 2288.03 1286.65 2253.21 1232.92C2207.92 1315.57 2120.12 1371.61 2019.23 1371.61C1900.39 1371.61 1799.71 1293.85 1765.29 1186.44C1741.74 1209.32 1709.6 1223.41 1674.17 1223.41C1650.45 1223.41 1628.2 1217.1 1609.03 1206.06C1573.49 1256.12 1515.04 1288.79 1448.97 1288.79C1375.23 1288.79 1310.99 1248.1 1277.49 1187.95C1235.35 1264.52 1153.9 1316.4 1060.32 1316.4C964.146 1316.4 880.77 1261.59 839.728 1181.5C820.604 1192.45 798.449 1198.72 774.83 1198.72C745.414 1198.72 718.266 1189 696.419 1172.61C655.027 1274.81 554.812 1346.91 437.759 1346.91C317.929 1346.91 215.747 1271.35 176.253 1165.28C140.509 1204.57 88.9727 1229.23 31.6765 1229.23C-0.0558777 1229.23 -30.0217 1221.66 -56.5166 1208.24C-87.3965 1275.5 -155.345 1322.21 -234.202 1322.21C-314.124 1322.21 -382.84 1274.23 -413.118 1205.51C-426.133 1210.5 -440.268 1213.24 -455.042 1213.24C-519.636 1213.24 -572 1160.88 -572 1096.29C-572 1031.69 -519.636 979.329 -455.042 979.329C-428.797 979.329 -404.57 987.974 -385.055 1002.57C-349.214 959.098 -294.945 931.383 -234.202 931.383C-202.47 931.383 -172.504 938.947 -146.009 952.37C-115.129 885.108 -47.1811 838.398 31.6765 838.398C100.751 838.398 161.454 874.237 196.207 928.333C244.46 845.033 334.566 789 437.759 789C554.812 789 655.026 861.095 696.419 963.303C718.266 946.909 745.414 937.195 774.83 937.195C798.687 937.195 821.051 943.584 840.306 954.743C881.549 875.264 964.595 820.964 1060.32 820.964C1164.75 820.964 1254.09 885.583 1290.53 977.017C1326.21 928.214 1383.89 896.514 1448.97 896.514C1515.04 896.514 1573.49 929.184 1609.03 979.252C1628.2 968.21 1650.45 961.894 1674.17 961.894C1712.97 961.894 1747.82 978.79 1771.76 1005.63C1811.16 907.603 1907.12 838.398 2019.23 838.398C2130.5 838.398 2225.84 906.557 2265.79 1003.4Z" fill="#F1EFEF" fill-opacity="0.2"/>
<path fill-rule="evenodd" clip-rule="evenodd" d="M260.796 1132.43C236.133 1162.68 198.573 1182 156.5 1182C117.485 1182 82.3492 1165.39 57.7811 1138.85C39.7671 1178.46 -0.150314 1206 -46.5 1206C-83.9763 1206 -117.247 1188 -138.135 1160.16C-150.002 1167.05 -163.79 1171 -178.5 1171C-222.959 1171 -259 1134.96 -259 1090.5C-259 1046.04 -222.959 1010 -178.5 1010C-163.354 1010 -149.184 1014.18 -137.084 1021.46C-116.141 994.411 -83.3538 977 -46.5 977C-17.6805 977 8.65207 987.647 28.7788 1005.22C46.5017 951.653 96.987 913 156.5 913C203.855 913 245.494 937.473 269.46 974.461C300.626 917.573 361.058 879 430.5 879C512.297 879 581.594 932.52 605.283 1006.45C621.491 990.7 643.613 981 668 981C684.326 981 699.637 985.347 712.838 992.947C737.299 958.486 777.523 936 823 936C873.755 936 917.967 964.009 941.025 1005.41C970.029 952.711 1026.09 917 1090.5 917C1156.7 917 1214.08 954.725 1242.33 1009.85C1255.49 1002.31 1270.74 998 1287 998C1307.25 998 1325.93 1004.69 1340.97 1015.97C1369.46 945.622 1438.43 896 1519 896C1601.48 896 1671.81 948.004 1698.99 1021.01C1723.59 993.972 1759.06 977 1798.5 977C1820.34 977 1840.97 982.206 1859.2 991.445C1880.46 945.15 1927.22 913 1981.5 913C2036.51 913 2083.8 946.023 2104.64 993.326C2113.6 989.886 2123.33 988 2133.5 988C2177.96 988 2214 1024.04 2214 1068.5C2214 1112.96 2177.96 1149 2133.5 1149C2115.44 1149 2098.76 1143.05 2085.33 1133C2060.66 1162.92 2023.31 1182 1981.5 1182C1959.66 1182 1939.03 1176.79 1920.8 1167.56C1899.54 1213.85 1852.78 1246 1798.5 1246C1750.96 1246 1709.18 1221.33 1685.26 1184.1C1652.04 1241.43 1590.03 1280 1519 1280C1438.43 1280 1369.46 1230.38 1340.97 1160.03C1325.93 1171.31 1307.25 1178 1287 1178C1270.58 1178 1255.19 1173.6 1241.93 1165.92C1213.55 1220.63 1156.39 1258 1090.5 1258C1018.62 1258 957.135 1213.52 932.054 1150.59C907.497 1184.18 867.796 1206 823 1206C777.523 1206 737.299 1183.51 712.838 1149.05C699.637 1156.65 684.326 1161 668 1161C641.297 1161 617.31 1149.37 600.828 1130.9C573.709 1198.37 507.667 1246 430.5 1246C353.919 1246 288.294 1199.09 260.796 1132.43Z" fill="#F8F8F8"/>
</g>
<defs>
<clipPath id="clip0_16_2">
<rect width="1920" height="1080" fill="white"/>
</clipPath>
</defs>
</svg>
